# xmcd
#
# Track frame offsets: 
#        150
#        16314
#        36223
#        53547
#        79538
#        102637
#        121218
#        141242
#        164115
#        180398
#        209175
#        233586
#        249320
#        273395
#        296300
#
# Disc length: 4090 seconds
#
# Revision: 3
# Processed by: cddbd v1.5.2PL0 Copyright (c) Steve Scherf et al.
# Submitted via: ExactAudioCopy v0.95b4
#
DISCID=d00ff80f
DTITLE=Various Artist - Nu Jazz, Vol. 2 Disc 2
DYEAR=2005
DGENRE=Jazz
TTITLE0=Fertile Ground - Yellow Daisies
TTITLE1=Kinny and Horne - Sacred Life
TTITLE2=Tosca - Pyjama
TTITLE3=Matthew Herbert feat. Dani Siciliano - Suddenly
TTITLE4=Deyampert - Held Him First
TTITLE5=Jazzanova feat. Clara Hill - No Use
TTITLE6=Platnum - Greatest
TTITLE7=Verna Francis - Rimes
TTITLE8=Jumbonics - (You Little) Jezebel (Diesler Mix)
TTITLE9=Beatfanatic - Ripped of Like Jazz
TTITLE10=Bing Bang feat. Jessica Lauren - Clouds
TTITLE11=Benny Sings - Get There
TTITLE12=Beat Assaillant - Hard Twelve (The Payout)
TTITLE13=TM Juke - High Rise
TTITLE14=Nathan Haines - Impossible Beauty
EXTD=YEAR: 2005
EXTT0=
EXTT1=
EXTT2=
EXTT3=
EXTT4=
EXTT5=
EXTT6=
EXTT7=
EXTT8=
EXTT9=
EXTT10=
EXTT11=
EXTT12=
EXTT13=
EXTT14=
PLAYORDER=
